<?xml version="1.0" encoding="UTF-8" standalone="no"?>
<!-- Created with Inkscape (http://www.inkscape.org/) -->

<svg
   xmlns:dc="http://purl.org/dc/elements/1.1/"
   xmlns:cc="http://creativecommons.org/ns#"
   xmlns:rdf="http://www.w3.org/1999/02/22-rdf-syntax-ns#"
   xmlns:svg="http://www.w3.org/2000/svg"
   xmlns="http://www.w3.org/2000/svg"
   xmlns:sodipodi="http://sodipodi.sourceforge.net/DTD/sodipodi-0.dtd"
   xmlns:inkscape="http://www.inkscape.org/namespaces/inkscape"
   id="svg4667"
   version="1.1"
   inkscape:version="0.48.5 r10040"
   width="409.83511"
   height="74.089378"
   xml:space="preserve"
   sodipodi:docname="manual solo todo.pdf"><metadata
     id="metadata4673"><rdf:RDF><cc:Work
         rdf:about=""><dc:format>image/svg+xml</dc:format><dc:type
           rdf:resource="http://purl.org/dc/dcmitype/StillImage" /><dc:title></dc:title></cc:Work></rdf:RDF></metadata><defs
     id="defs4671"><clipPath
       clipPathUnits="userSpaceOnUse"
       id="clipPath4685"><path
         d="m 0,0 566.929,0 0,425.197 L 0,425.197 0,0 z"
         id="path4687"
         inkscape:connector-curvature="0" /></clipPath></defs><sodipodi:namedview
     pagecolor="#ffffff"
     bordercolor="#666666"
     borderopacity="1"
     objecttolerance="10"
     gridtolerance="10"
     guidetolerance="10"
     inkscape:pageopacity="0"
     inkscape:pageshadow="2"
     inkscape:window-width="1920"
     inkscape:window-height="1014"
     id="namedview4669"
     showgrid="false"
     fit-margin-top="0"
     fit-margin-left="0"
     fit-margin-right="0"
     fit-margin-bottom="0"
     inkscape:zoom="1.2559049"
     inkscape:cx="133.70575"
     inkscape:cy="-106.74701"
     inkscape:window-x="1920"
     inkscape:window-y="27"
     inkscape:window-maximized="1"
     inkscape:current-layer="g4675" /><g
     id="g4675"
     inkscape:groupmode="layer"
     inkscape:label="manual solo todo"
     transform="matrix(1.25,0,0,-1.25,-220.62487,446.5845)"><g
       id="g4777"
       transform="translate(201.3099,333.9736)"><path
         d="m 0,0 c 2.233,-0.905 4.241,-1.822 6.022,-2.753 1.781,-0.931 3.311,-2.047 4.587,-3.349 1.276,-1.304 2.261,-2.872 2.951,-4.707 0.691,-1.835 1.038,-4.056 1.038,-6.661 0,-2.82 -0.492,-5.358 -1.476,-7.619 -0.985,-2.26 -2.432,-4.201 -4.347,-5.823 -1.916,-1.623 -4.268,-2.872 -7.06,-3.75 -2.793,-0.876 -5.997,-1.315 -9.613,-1.315 -3.298,0 -6.21,0.266 -8.736,0.797 -2.526,0.531 -5.252,1.357 -8.176,2.473 0.212,1.861 0.585,3.841 1.117,5.943 0.531,2.101 1.168,4.241 1.914,6.422 4.892,-2.128 9.147,-3.191 12.764,-3.191 2.713,0 4.826,0.411 6.342,1.237 1.516,0.823 2.273,2.246 2.273,4.268 0,0.849 -0.158,1.581 -0.478,2.193 -0.319,0.611 -0.745,1.129 -1.276,1.555 -0.532,0.426 -1.131,0.785 -1.796,1.078 -0.665,0.291 -1.344,0.571 -2.033,0.837 l -4.468,1.675 c -1.915,0.691 -3.657,1.517 -5.225,2.474 -1.569,0.957 -2.912,2.086 -4.028,3.39 -1.117,1.302 -1.982,2.804 -2.593,4.507 -0.612,1.702 -0.917,3.696 -0.917,5.983 0,2.818 0.478,5.318 1.435,7.499 0.958,2.18 2.3,4.028 4.029,5.544 1.728,1.515 3.816,2.659 6.262,3.431 2.446,0.77 5.186,1.156 8.217,1.156 2.713,0 5.33,-0.267 7.857,-0.798 2.525,-0.532 5.226,-1.304 8.098,-2.314 C 12.47,18.48 12.085,16.605 11.527,14.559 10.969,12.511 10.262,10.583 9.413,8.776 8.029,9.36 6.408,9.972 4.547,10.61 c -1.863,0.638 -4.176,0.957 -6.941,0.957 -0.851,0 -1.662,-0.079 -2.433,-0.239 C -5.599,11.169 -6.291,10.916 -6.901,10.57 -7.513,10.224 -8.006,9.744 -8.377,9.134 -8.75,8.523 -8.936,7.764 -8.936,6.861 -8.936,5.318 -8.43,4.174 -7.419,3.43 -6.41,2.685 -5.213,2.046 -3.83,1.517 L 0,0 z"
         style="fill:#ffffff;fill-opacity:1;fill-rule:nonzero;stroke:none"
         id="path4779"
         inkscape:connector-curvature="0" /></g><g
       id="g4781"
       transform="translate(247.1004,319.3757)"><path
         d="M 0,0 C 0,3.402 -0.573,6.009 -1.715,7.818 -2.859,9.625 -4.6,10.53 -6.94,10.53 c -2.341,0 -4.069,-0.905 -5.186,-2.712 -1.116,-1.809 -1.675,-4.416 -1.675,-7.818 0,-3.351 0.559,-5.931 1.675,-7.738 1.117,-1.809 2.845,-2.713 5.186,-2.713 2.34,0 4.081,0.904 5.225,2.713 C -0.573,-5.931 0,-3.351 0,0 m -27.442,0 c 0,3.243 0.439,6.208 1.316,8.894 0.877,2.685 2.18,4.986 3.909,6.901 1.728,1.914 3.869,3.39 6.422,4.427 2.553,1.037 5.504,1.556 8.855,1.556 3.403,0 6.382,-0.519 8.934,-1.556 2.553,-1.037 4.693,-2.513 6.422,-4.427 1.727,-1.915 3.032,-4.216 3.908,-6.901 0.878,-2.686 1.317,-5.651 1.317,-8.894 0,-3.191 -0.439,-6.104 -1.317,-8.736 -0.876,-2.633 -2.181,-4.893 -3.908,-6.78 -1.729,-1.889 -3.869,-3.338 -6.422,-4.348 -2.552,-1.01 -5.531,-1.515 -8.934,-1.515 -3.351,0 -6.302,0.505 -8.855,1.515 -2.553,1.01 -4.694,2.459 -6.422,4.348 -1.729,1.887 -3.032,4.147 -3.909,6.78 -0.877,2.632 -1.316,5.545 -1.316,8.736"
         style="fill:#ffffff;fill-opacity:1;fill-rule:nonzero;stroke:none"
         id="path4783"
         inkscape:connector-curvature="0" /></g><g
       id="g4785"
       transform="translate(279.5667,310.2013)"><path
         d="m 0,0 15.077,0 c 0.266,-1.065 0.439,-2.048 0.519,-2.951 0.08,-0.905 0.12,-1.783 0.12,-2.633 0,-0.851 -0.04,-1.743 -0.12,-2.673 -0.08,-0.93 -0.253,-1.928 -0.519,-2.991 l -28.558,0 0.079,41.242 c 1.17,0.266 2.325,0.452 3.471,0.56 1.142,0.105 2.246,0.158 3.309,0.158 1.01,0 2.101,-0.053 3.272,-0.158 1.169,-0.108 2.313,-0.294 3.429,-0.56 L 0,0 z"
         style="fill:#ffffff;fill-opacity:1;fill-rule:nonzero;stroke:none"
         id="path4787"
         inkscape:connector-curvature="0" /></g><g
       id="g4789"
       transform="translate(324.0016,319.3757)"><path
         d="M 0,0 C 0,3.402 -0.573,6.009 -1.715,7.818 -2.859,9.625 -4.6,10.53 -6.94,10.53 c -2.341,0 -4.069,-0.905 -5.186,-2.712 -1.116,-1.809 -1.675,-4.416 -1.675,-7.818 0,-3.351 0.559,-5.931 1.675,-7.738 1.117,-1.809 2.845,-2.713 5.186,-2.713 2.34,0 4.081,0.904 5.225,2.713 C -0.573,-5.931 0,-3.351 0,0 m -27.442,0 c 0,3.243 0.439,6.208 1.316,8.894 0.877,2.685 2.18,4.986 3.909,6.901 1.728,1.914 3.869,3.39 6.422,4.427 2.553,1.037 5.504,1.556 8.855,1.556 3.403,0 6.382,-0.519 8.934,-1.556 2.553,-1.037 4.693,-2.513 6.422,-4.427 1.727,-1.915 3.032,-4.216 3.908,-6.901 0.878,-2.686 1.317,-5.651 1.317,-8.894 0,-3.191 -0.439,-6.104 -1.317,-8.736 -0.876,-2.633 -2.181,-4.893 -3.908,-6.78 -1.729,-1.889 -3.869,-3.338 -6.422,-4.348 -2.552,-1.01 -5.531,-1.515 -8.934,-1.515 -3.351,0 -6.302,0.505 -8.855,1.515 -2.553,1.01 -4.694,2.459 -6.422,4.348 -1.729,1.887 -3.032,4.147 -3.909,6.78 -0.877,2.632 -1.316,5.545 -1.316,8.736"
         style="fill:#ffffff;fill-opacity:1;fill-rule:nonzero;stroke:none"
         id="path4791"
         inkscape:connector-curvature="0" /></g><g
       id="g4793"
       transform="translate(353.7556,343.866)"><path
         d="m 0,0 -13.322,0 c -0.479,2.285 -0.718,4.387 -0.718,6.301 0,1.756 0.239,3.802 0.718,6.143 l 40.764,0 c 0.212,-1.17 0.371,-2.261 0.479,-3.271 C 28.027,8.163 28.08,7.205 28.08,6.301 28.08,4.547 27.867,2.445 27.442,0 l -13.322,0 0,-44.674 c -2.82,-0.478 -5.16,-0.718 -7.02,-0.718 -1.969,0 -4.336,0.24 -7.1,0.718 L 0,0 z"
         style="fill:#fccb07;fill-opacity:1;fill-rule:nonzero;stroke:none"
         id="path4795"
         inkscape:connector-curvature="0" /></g><g
       id="g4797"
       transform="translate(402.5791,319.3757)"><path
         d="M 0,0 C 0,3.402 -0.573,6.009 -1.715,7.818 -2.859,9.625 -4.6,10.53 -6.94,10.53 c -2.341,0 -4.069,-0.905 -5.186,-2.712 -1.116,-1.809 -1.675,-4.416 -1.675,-7.818 0,-3.351 0.559,-5.931 1.675,-7.738 1.117,-1.809 2.845,-2.713 5.186,-2.713 2.34,0 4.081,0.904 5.225,2.713 C -0.573,-5.931 0,-3.351 0,0 m -27.442,0 c 0,3.243 0.439,6.208 1.316,8.894 0.877,2.685 2.18,4.986 3.909,6.901 1.728,1.914 3.869,3.39 6.422,4.427 2.553,1.037 5.504,1.556 8.855,1.556 3.403,0 6.382,-0.519 8.934,-1.556 2.553,-1.037 4.693,-2.513 6.422,-4.427 1.727,-1.915 3.032,-4.216 3.908,-6.901 0.878,-2.686 1.317,-5.651 1.317,-8.894 0,-3.191 -0.439,-6.104 -1.317,-8.736 -0.876,-2.633 -2.181,-4.893 -3.908,-6.78 -1.729,-1.889 -3.869,-3.338 -6.422,-4.348 -2.552,-1.01 -5.531,-1.515 -8.934,-1.515 -3.351,0 -6.302,0.505 -8.855,1.515 -2.553,1.01 -4.694,2.459 -6.422,4.348 -1.729,1.887 -3.032,4.147 -3.909,6.78 -0.877,2.632 -1.316,5.545 -1.316,8.736"
         style="fill:#fccb07;fill-opacity:1;fill-rule:nonzero;stroke:none"
         id="path4799"
         inkscape:connector-curvature="0" /></g><g
       id="g4801"
       transform="translate(435.0454,309.4041)"><path
         d="m 0,0 c 0.212,0 0.491,-0.027 0.837,-0.081 0.346,-0.053 0.864,-0.079 1.556,-0.079 2.978,0 5.197,0.838 6.661,2.513 1.463,1.675 2.194,4.427 2.194,8.256 0,3.403 -0.718,5.89 -2.154,7.459 -1.436,1.568 -3.484,2.353 -6.143,2.353 -0.637,0 -1.223,-0.027 -1.754,-0.079 C 0.665,20.289 0.265,20.234 0,20.182 L 0,0 z m 0.639,31.75 c 4.307,0 7.989,-0.507 11.048,-1.517 3.058,-1.01 5.57,-2.433 7.538,-4.268 1.967,-1.834 3.403,-4.055 4.308,-6.66 0.904,-2.606 1.356,-5.504 1.356,-8.696 0,-3.35 -0.466,-6.381 -1.396,-9.094 -0.931,-2.712 -2.393,-5.026 -4.387,-6.94 -1.994,-1.915 -4.574,-3.39 -7.739,-4.427 -3.164,-1.038 -6.98,-1.556 -11.446,-1.556 -2.607,0 -4.934,0.094 -6.98,0.279 -2.049,0.187 -4.189,0.439 -6.422,0.757 l 0,41.005 c 2.233,0.265 4.599,0.518 7.099,0.757 2.5,0.24 4.84,0.36 7.021,0.36"
         style="fill:#fccb07;fill-opacity:1;fill-rule:nonzero;stroke:none"
         id="path4803"
         inkscape:connector-curvature="0" /></g><g
       id="g4805"
       transform="translate(490.727,319.3757)"><path
         d="M 0,0 C 0,3.402 -0.573,6.009 -1.715,7.818 -2.859,9.625 -4.6,10.53 -6.94,10.53 c -2.341,0 -4.069,-0.905 -5.186,-2.712 -1.116,-1.809 -1.675,-4.416 -1.675,-7.818 0,-3.351 0.559,-5.931 1.675,-7.738 1.117,-1.809 2.845,-2.713 5.186,-2.713 2.34,0 4.081,0.904 5.225,2.713 C -0.573,-5.931 0,-3.351 0,0 m -27.442,0 c 0,3.243 0.439,6.208 1.316,8.894 0.877,2.685 2.18,4.986 3.909,6.901 1.728,1.914 3.869,3.39 6.422,4.427 2.553,1.037 5.504,1.556 8.855,1.556 3.403,0 6.382,-0.519 8.934,-1.556 2.553,-1.037 4.693,-2.513 6.422,-4.427 1.727,-1.915 3.032,-4.216 3.908,-6.901 0.878,-2.686 1.317,-5.651 1.317,-8.894 0,-3.191 -0.439,-6.104 -1.317,-8.736 -0.876,-2.633 -2.181,-4.893 -3.908,-6.78 -1.729,-1.889 -3.869,-3.338 -6.422,-4.348 -2.552,-1.01 -5.531,-1.515 -8.934,-1.515 -3.351,0 -6.302,0.505 -8.855,1.515 -2.553,1.01 -4.694,2.459 -6.422,4.348 -1.729,1.887 -3.032,4.147 -3.909,6.78 -0.877,2.632 -1.316,5.545 -1.316,8.736"
         style="fill:#fccb07;fill-opacity:1;fill-rule:nonzero;stroke:none"
         id="path4807"
         inkscape:connector-curvature="0" /></g></g></svg>